<mxfile host="app.diagrams.net" agent="Mozilla/5.0 (Windows NT 10.0; Win64; x64) AppleWebKit/537.36 (KHTML, like Gecko) Chrome/134.0.0.0 Safari/537.36" version="26.1.1">
  <diagram name="Página-1" id="3rkqtj--hBrHgvePeytC">
    <mxGraphModel dx="2074" dy="841" grid="1" gridSize="10" guides="1" tooltips="1" connect="1" arrows="1" fold="1" page="1" pageScale="1" pageWidth="1200" pageHeight="1600" math="0" shadow="0">
      <root>
        <mxCell id="0" />
        <mxCell id="1" parent="0" />
        <mxCell id="pC5V0CbygQR7Cua_b26K-1" value="BD&lt;div&gt;Módulo Orçamentário&lt;/div&gt;&lt;div&gt;(Oracle)&lt;/div&gt;" style="shape=cylinder3;whiteSpace=wrap;html=1;boundedLbl=1;backgroundOutline=1;size=15;" vertex="1" parent="1">
          <mxGeometry x="709" y="420" width="90" height="90" as="geometry" />
        </mxCell>
        <mxCell id="pC5V0CbygQR7Cua_b26K-2" value="GFO - Módulo Orçamentário" style="ellipse;whiteSpace=wrap;html=1;aspect=fixed;" vertex="1" parent="1">
          <mxGeometry x="430" y="420" width="100" height="100" as="geometry" />
        </mxCell>
        <mxCell id="pC5V0CbygQR7Cua_b26K-3" value="Storage&lt;div&gt;SIAFI&lt;/div&gt;" style="rounded=1;whiteSpace=wrap;html=1;" vertex="1" parent="1">
          <mxGeometry x="140" y="440" width="120" height="60" as="geometry" />
        </mxCell>
        <mxCell id="pC5V0CbygQR7Cua_b26K-4" value="" style="whiteSpace=wrap;html=1;shape=mxgraph.basic.document" vertex="1" parent="1">
          <mxGeometry x="310" y="380" width="50" height="70" as="geometry" />
        </mxCell>
        <mxCell id="pC5V0CbygQR7Cua_b26K-6" value="" style="shape=singleArrow;whiteSpace=wrap;html=1;arrowWidth=0.43333333333333335;arrowSize=0.31666666666666665;" vertex="1" parent="1">
          <mxGeometry x="550" y="450" width="140" height="40" as="geometry" />
        </mxCell>
        <mxCell id="pC5V0CbygQR7Cua_b26K-7" value="&lt;b&gt;&lt;font style=&quot;font-size: 16px;&quot;&gt;Fluxo da História&lt;/font&gt;&lt;/b&gt;&lt;div&gt;&lt;b&gt;&lt;font style=&quot;font-size: 16px;&quot;&gt;HT2 - Carga inicial da tabela de Unidade Orçamentária&lt;/font&gt;&lt;/b&gt;&lt;/div&gt;" style="text;html=1;align=left;verticalAlign=middle;whiteSpace=wrap;rounded=0;" vertex="1" parent="1">
          <mxGeometry x="140" y="310" width="440" height="60" as="geometry" />
        </mxCell>
        <mxCell id="pC5V0CbygQR7Cua_b26K-8" value="" style="shape=singleArrow;whiteSpace=wrap;html=1;arrowWidth=0.43333333333333335;arrowSize=0.31666666666666665;" vertex="1" parent="1">
          <mxGeometry x="275" y="450" width="140" height="40" as="geometry" />
        </mxCell>
      </root>
    </mxGraphModel>
  </diagram>
</mxfile>
